<svg version="1.1" xmlns="http://www.w3.org/2000/svg" xmlns:xlink="http://www.w3.org/1999/xlink" width="500" height="500"><g data-paper-data="{&quot;description&quot;:&quot;Logo for smart factory manager\n==============================\n\nThis logo was generated by MarkMaker at http://emblemmatic.org/markmaker/ and may be composed of elements designed by others.\n\nThe font is Hind Bold designed by Indian Type Foundry and released under the OFL license via Google Fonts: https://www.google.com/fonts/specimen/Hind. The font includes this copyright statement: Copyright (c) 2014 Indian Type Foundry (info@indiantypefoundry.com)\n\nMarkMaker uses semantic data from the Princeton University WordNet database http://wordnet.princeton.edu and font descriptions from Google Fonts https://www.google.com/fonts.&quot;}" fill="#060300" fill-rule="nonzero" stroke="none" stroke-width="1" stroke-linecap="butt" stroke-linejoin="miter" stroke-miterlimit="10" stroke-dasharray="" stroke-dashoffset="0" font-family="none" font-weight="none" font-size="none" text-anchor="none" style="mix-blend-mode: normal"><g data-paper-data="{&quot;elementType&quot;:&quot;logo&quot;}"><g data-paper-data="{&quot;elementType&quot;:&quot;text&quot;}"><g data-paper-data="{&quot;baseline&quot;:68.5}"><g data-paper-data="{&quot;baselineProportion&quot;:0.9883381924198251,&quot;fontSize&quot;:100,&quot;baseline&quot;:67.8,&quot;elementType&quot;:&quot;word&quot;}"><path d="M62.92082,292.65781c-1.36009,0 -2.39759,0.27899 -3.11251,0.83698c-0.71492,0.55798 -1.07238,1.2729 -1.07238,2.14475c0,0.87185 0.43593,1.6478 1.30778,2.32784c0.87185,0.68004 2.01397,1.33393 3.42637,1.96166c1.4124,0.62773 2.47605,1.12469 3.19097,1.49086c0.71492,0.36618 1.53446,0.87185 2.45862,1.51702c0.92416,0.64517 1.6478,1.31649 2.17091,2.01397c1.32521,1.7437 1.98782,3.76639 1.98782,6.06808c0,3.17353 -1.16828,5.74549 -3.50484,7.71587c-2.33656,1.97038 -5.51009,2.95557 -9.5206,2.95557c-4.01051,0 -7.32354,-0.73235 -9.93909,-2.19706v-8.10821c3.17353,2.30168 6.55631,3.45253 10.14834,3.45253c1.22059,0 2.23194,-0.32258 3.03404,-0.96775c0.8021,-0.64517 1.20315,-1.49086 1.20315,-2.53708c0,-0.76723 -0.19181,-1.34265 -0.57542,-1.72626c-0.38361,-0.38361 -0.7062,-0.67132 -0.96775,-0.86313c-0.26156,-0.19181 -0.64517,-0.41849 -1.15084,-0.68004c-0.50567,-0.26156 -0.93288,-0.47952 -1.28162,-0.65389c-1.08109,-0.52311 -2.14475,-1.01135 -3.19097,-1.46471c-2.26681,-1.04622 -4.08898,-2.33656 -5.4665,-3.87101c-1.37752,-1.53446 -2.06629,-3.69664 -2.06629,-6.48657c0,-2.78992 1.11597,-5.11776 3.3479,-6.98352c2.23194,-1.86576 5.21366,-2.79864 8.94518,-2.79864c3.73152,0 6.87018,0.59286 9.41598,1.77857v7.53279c-2.82479,-1.63908 -5.75421,-2.45862 -8.78825,-2.45862z" data-paper-data="{&quot;elementType&quot;:&quot;letter&quot;,&quot;baseline&quot;:67.8,&quot;baselineProportion&quot;:0.9883381924198251,&quot;fontSize&quot;:100}"></path><path d="M77.46328,321.27194l3.03404,-35.25762h8.84056c4.21976,10.98531 6.59991,17.28007 7.14045,18.88428c0.54055,1.6042 0.98519,3.12122 1.33393,4.55106c0.55798,-2.30168 1.77857,-5.85883 3.66177,-10.67145l4.96955,-12.76389h8.84056l3.66177,35.25762h-8.0559l-1.30778,-13.65317l-0.68004,-10.30527c-0.73235,2.12731 -3.64433,9.9914 -8.73594,23.59227h-4.7603c-4.81261,-12.97313 -7.5851,-20.83722 -8.31745,-23.59227c0,2.47605 -0.15693,5.91114 -0.4708,10.30527l-1.09853,13.65317z" data-paper-data="{&quot;elementType&quot;:&quot;letter&quot;,&quot;baseline&quot;:67.4,&quot;baselineProportion&quot;:1,&quot;fontSize&quot;:100}"></path><path d="M147.82159,321.27194l-2.14475,-7.21892h-12.3454l-2.14475,7.21892h-8.42207l11.76998,-35.25762h10.14834l11.76998,35.25762h-8.63132M135.26695,307.56645h8.47438c-2.33656,-7.98615 -3.74896,-13.21725 -4.23719,-15.6933c-0.20924,1.53446 -1.62164,6.76556 -4.23719,15.6933z" data-paper-data="{&quot;elementType&quot;:&quot;letter&quot;,&quot;baseline&quot;:67.4,&quot;baselineProportion&quot;:1,&quot;fontSize&quot;:100}"></path><path d="M169.11218,309.03116v12.24078h-8.0559v-35.25762h12.18847c3.94076,0 7.10558,1.04622 9.49445,3.13866c2.38887,2.09244 3.5833,4.81261 3.5833,8.16052c0,5.02186 -2.14475,8.49182 -6.43425,10.40989l8.94518,13.54855h-9.62523l-7.63741,-12.24078h-2.45862M169.11218,292.55319v9.93909h3.8187c3.4874,0 5.2311,-1.70883 5.2311,-5.12648c0,-1.49958 -0.45336,-2.67658 -1.36009,-3.53099c-0.90672,-0.85441 -2.14475,-1.28162 -3.71408,-1.28162z" data-paper-data="{&quot;elementType&quot;:&quot;letter&quot;,&quot;baseline&quot;:67.4,&quot;baselineProportion&quot;:1,&quot;fontSize&quot;:100}"></path><path d="M216.66289,286.01432v6.48657h-8.57901v28.77106h-8.10821v-28.77106h-8.63132v-6.48657z" data-paper-data="{&quot;elementType&quot;:&quot;letter&quot;,&quot;baseline&quot;:67.4,&quot;baselineProportion&quot;:1,&quot;fontSize&quot;:100}"></path></g><g data-paper-data="{&quot;baselineProportion&quot;:0.9884559884559885,&quot;fontSize&quot;:100,&quot;baseline&quot;:68.5,&quot;elementType&quot;:&quot;word&quot;}"><path d="M248.23642,292.44857h-13.39162v9.10212h11.66536v6.43425h-11.66536v13.287h-8.10821v-35.25762h21.49983z" data-paper-data="{&quot;elementType&quot;:&quot;letter&quot;,&quot;baseline&quot;:67.4,&quot;baselineProportion&quot;:1,&quot;fontSize&quot;:100}"></path><path d="M276.06588,321.27194l-2.14475,-7.21892h-12.3454l-2.14475,7.21892h-8.42207l11.76998,-35.25762h10.14834l11.76998,35.25762h-8.63132M263.51124,307.56645h8.47438c-2.33656,-7.98615 -3.74896,-13.21725 -4.23719,-15.6933c-0.20924,1.53446 -1.62164,6.76556 -4.23719,15.6933z" data-paper-data="{&quot;elementType&quot;:&quot;letter&quot;,&quot;baseline&quot;:67.4,&quot;baselineProportion&quot;:1,&quot;fontSize&quot;:100}"></path><path d="M315.35145,295.27336c-2.61555,-1.6042 -5.43163,-2.40631 -8.44823,-2.40631c-3.0166,0 -5.48394,0.98519 -7.40201,2.95557c-1.91807,1.97038 -2.87711,4.59465 -2.87711,7.87281c0,3.27816 0.95904,5.86755 2.87711,7.76819c1.91807,1.90063 4.45515,2.85095 7.61125,2.85095c3.1561,0 5.90243,-0.83698 8.23898,-2.51093v7.89896c-2.12731,1.32521 -5.19623,1.98782 -9.20674,1.98782c-5.16135,0 -9.47701,-1.66523 -12.94698,-4.9957c-3.46996,-3.33047 -5.20495,-7.66356 -5.20495,-12.99929c0,-5.33572 1.68267,-9.69497 5.04801,-13.07775c3.36534,-3.38278 7.75075,-5.07417 13.15622,-5.07417c3.97564,0 7.02711,0.66261 9.15443,1.98782z" data-paper-data="{&quot;elementType&quot;:&quot;letter&quot;,&quot;baseline&quot;:68.3,&quot;baselineProportion&quot;:0.9884225759768452,&quot;fontSize&quot;:100}"></path><path d="M344.85486,286.01432v6.48657h-8.57901v28.77106h-8.10821v-28.77106h-8.63132v-6.48657z" data-paper-data="{&quot;elementType&quot;:&quot;letter&quot;,&quot;baseline&quot;:67.4,&quot;baselineProportion&quot;:1,&quot;fontSize&quot;:100}"></path><path d="M365.64849,321.63812c0,0 -1.30342,0 -3.91025,0c-2.60683,0 -5.46214,-1.65652 -8.56593,-4.96955c-3.10379,-3.31303 -4.65568,-7.681 -4.65568,-13.10391c0,-5.42291 1.56061,-9.7996 4.68184,-13.13006c3.12122,-3.33047 7.28867,-4.9957 12.50233,-4.9957c5.21366,0 9.37239,1.65652 12.47618,4.96955c3.10379,3.31303 4.65568,7.681 4.65568,13.10391c0,5.42291 -1.56061,9.7996 -4.68184,13.13006c-3.12122,3.33047 -7.28867,4.9957 -12.50233,4.9957zM359.44964,295.6657c0,0 -0.38361,0.48388 -1.15084,1.45163c-0.76723,0.96775 -1.15084,3.10815 -1.15084,6.42118c0,3.31303 0.76723,5.9373 2.30168,7.87281c1.53446,1.93551 3.60946,2.90326 6.22501,2.90326c2.61555,0 4.69055,-0.96775 6.22501,-2.90326c1.53446,-1.93551 2.30168,-4.55978 2.30168,-7.87281c0,-3.31303 -0.76723,-5.9373 -2.30168,-7.87281c-1.53446,-1.93551 -3.60946,-2.90326 -6.22501,-2.90326c-2.61555,0 -4.69055,0.96775 -6.22501,2.90326" data-paper-data="{&quot;elementType&quot;:&quot;letter&quot;,&quot;baseline&quot;:68.5,&quot;baselineProportion&quot;:0.9898843930635838,&quot;fontSize&quot;:100}"></path><path d="M396.38121,309.03116v12.24078h-8.0559v-35.25762h12.18847c3.94076,0 7.10558,1.04622 9.49445,3.13866c2.38887,2.09244 3.5833,4.81261 3.5833,8.16052c0,5.02186 -2.14475,8.49182 -6.43425,10.40989l8.94518,13.54855h-9.62523l-7.63741,-12.24078h-2.45862M396.38121,292.55319v9.93909h3.8187c3.4874,0 5.2311,-1.70883 5.2311,-5.12648c0,-1.49958 -0.45336,-2.67658 -1.36009,-3.53099c-0.90672,-0.85441 -2.14475,-1.28162 -3.71408,-1.28162z" data-paper-data="{&quot;elementType&quot;:&quot;letter&quot;,&quot;baseline&quot;:67.4,&quot;baselineProportion&quot;:1,&quot;fontSize&quot;:100}"></path><path d="M437.81153,321.27194h-8.0559v-12.92082l-12.03153,-22.3368h9.41598c3.52227,8.43951 5.71934,13.91473 6.59119,16.42566c0.34874,-1.56933 1.8832,-5.33572 4.60337,-11.29918l2.30168,-5.12648h9.36367l-12.18847,22.28449z" data-paper-data="{&quot;elementType&quot;:&quot;letter&quot;,&quot;baseline&quot;:67.4,&quot;baselineProportion&quot;:1,&quot;fontSize&quot;:100}"></path></g></g><g data-paper-data="{&quot;baseline&quot;:68.60000000000001,&quot;elementType&quot;:&quot;row&quot;}"><g data-paper-data="{&quot;baselineProportion&quot;:0.9884726224783862,&quot;fontSize&quot;:100,&quot;baseline&quot;:68.60000000000001,&quot;elementType&quot;:&quot;word&quot;}"><path d="M125.34286,354.64091l3.03404,-35.25762h8.84056c4.21976,10.98531 6.59991,17.28007 7.14045,18.88428c0.54055,1.6042 0.98519,3.12122 1.33393,4.55106c0.55798,-2.30168 1.77857,-5.85883 3.66177,-10.67145l4.96955,-12.76389h8.84056l3.66177,35.25762h-8.0559l-1.30778,-13.65317l-0.68004,-10.30527c-0.73235,2.12731 -3.64433,9.9914 -8.73594,23.59227h-4.7603c-4.81261,-12.97313 -7.5851,-20.83722 -8.31745,-23.59227c0,2.47605 -0.15693,5.91114 -0.4708,10.30527l-1.09853,13.65317z" data-paper-data="{&quot;elementType&quot;:&quot;letter&quot;,&quot;baseline&quot;:67.4,&quot;baselineProportion&quot;:1,&quot;fontSize&quot;:100}"></path><path d="M195.70117,354.64091l-2.14475,-7.21892h-12.3454l-2.14475,7.21892h-8.42207l11.76998,-35.25762h10.14834l11.76998,35.25762h-8.63132M183.14653,340.93543h8.47438c-2.33656,-7.98615 -3.74896,-13.21725 -4.23719,-15.6933c-0.20924,1.53446 -1.62164,6.76556 -4.23719,15.6933z" data-paper-data="{&quot;elementType&quot;:&quot;letter&quot;,&quot;baseline&quot;:67.4,&quot;baselineProportion&quot;:1,&quot;fontSize&quot;:100}"></path><path d="M208.93585,354.64091v-35.25762h8.84056l8.21283,14.59477c2.37143,4.21976 4.06282,7.79434 5.07417,10.72376c-0.34874,-2.58068 -0.52311,-6.15526 -0.52311,-10.72376v-14.59477h8.0559v35.25762h-8.84056l-8.42207,-14.59477c-2.19706,-3.73152 -3.76639,-6.93993 -4.70799,-9.62523l-0.41849,-1.30778c0.52311,3.13866 0.78467,6.78299 0.78467,10.933v14.59477z" data-paper-data="{&quot;elementType&quot;:&quot;letter&quot;,&quot;baseline&quot;:67.4,&quot;baselineProportion&quot;:1,&quot;fontSize&quot;:100}"></path><path d="M268.25654,354.64091l-2.14475,-7.21892h-12.3454l-2.14475,7.21892h-8.42207l11.76998,-35.25762h10.14834l11.76998,35.25762h-8.63132M255.7019,340.93543h8.47438c-2.33656,-7.98615 -3.74896,-13.21725 -4.23719,-15.6933c-0.20924,1.53446 -1.62164,6.76556 -4.23719,15.6933z" data-paper-data="{&quot;elementType&quot;:&quot;letter&quot;,&quot;baseline&quot;:67.4,&quot;baselineProportion&quot;:1,&quot;fontSize&quot;:100}"></path><path d="M311.88393,333.61189v17.78574c-3.3479,2.44118 -7.70716,3.66177 -13.07775,3.66177c-5.3706,0 -9.81703,-1.62164 -13.33931,-4.86492c-3.52227,-3.24328 -5.28341,-7.63741 -5.28341,-13.18238c0,-5.54497 1.8396,-9.97397 5.51881,-13.287c3.67921,-3.31303 8.34361,-4.96955 13.9932,-4.96955c3.97564,0 7.41073,0.73235 10.30527,2.19706v8.0559c-3.3479,-1.91807 -6.73068,-2.87711 -10.14834,-2.87711c-3.41765,0 -6.10295,0.98519 -8.0559,2.95557c-1.95294,1.97038 -2.92942,4.60337 -2.92942,7.89896c0,3.29559 0.95904,5.91986 2.87711,7.87281c1.91807,1.95294 4.53362,2.92942 7.84665,2.92942c1.49958,0 2.98173,-0.22668 4.44644,-0.68004v-6.6435h-5.7019v-6.85274z" data-paper-data="{&quot;elementType&quot;:&quot;letter&quot;,&quot;baseline&quot;:68.60000000000001,&quot;baselineProportion&quot;:0.9884726224783862,&quot;fontSize&quot;:100}"></path><path d="M326.53101,348.20666h13.81011v6.43425h-21.91831v-35.25762h21.70907v6.43425h-13.60086v8.00358h12.13615v6.38194h-12.13615z" data-paper-data="{&quot;elementType&quot;:&quot;letter&quot;,&quot;baseline&quot;:67.4,&quot;baselineProportion&quot;:1,&quot;fontSize&quot;:100}"></path><path d="M354.93589,342.40014v12.24078h-8.0559v-35.25762h12.18847c3.94076,0 7.10558,1.04622 9.49445,3.13866c2.38887,2.09244 3.5833,4.81261 3.5833,8.16052c0,5.02186 -2.14475,8.49182 -6.43425,10.40989l8.94518,13.54855h-9.62523l-7.63741,-12.24078h-2.45862M354.93589,325.92217v9.93909h3.8187c3.4874,0 5.2311,-1.70883 5.2311,-5.12648c0,-1.49958 -0.45336,-2.67658 -1.36009,-3.53099c-0.90672,-0.85441 -2.14475,-1.28162 -3.71408,-1.28162z" data-paper-data="{&quot;elementType&quot;:&quot;letter&quot;,&quot;baseline&quot;:67.4,&quot;baselineProportion&quot;:1,&quot;fontSize&quot;:100}"></path></g></g></g></g><g data-paper-data="{&quot;elementType&quot;:&quot;emblem&quot;}"><g data-paper-data="{&quot;baselineProportion&quot;:0.9883381924198251,&quot;fontSize&quot;:100,&quot;baseline&quot;:67.8,&quot;elementType&quot;:&quot;word&quot;}"><path d="M133.33333,167.92305c-4.5614,0 -8.04094,0.93567 -10.4386,2.80702c-2.39766,1.87135 -3.59649,4.26901 -3.59649,7.19298c0,2.92398 1.46199,5.52632 4.38596,7.80702c2.92398,2.2807 6.75439,4.47368 11.49123,6.57895c4.73684,2.10526 8.30409,3.77193 10.70175,5c2.39766,1.22807 5.1462,2.92398 8.24561,5.08772c3.09942,2.16374 5.52632,4.4152 7.2807,6.75439c4.44444,5.84795 6.66667,12.63158 6.66667,20.35088c0,10.64327 -3.91813,19.26901 -11.75439,25.87719c-7.83626,6.60819 -18.47953,9.91228 -31.92982,9.91228c-13.45029,0 -24.5614,-2.45614 -33.33333,-7.36842v-27.19298c10.64327,7.7193 21.9883,11.57895 34.03509,11.57895c4.09357,0 7.48538,-1.08187 10.17544,-3.24561c2.69006,-2.16374 4.03509,-5 4.03509,-8.50877c0,-2.5731 -0.64327,-4.50292 -1.92982,-5.78947c-1.28655,-1.28655 -2.36842,-2.25146 -3.24561,-2.89474c-0.87719,-0.64327 -2.16374,-1.40351 -3.85965,-2.2807c-1.69591,-0.87719 -3.12865,-1.60819 -4.29825,-2.19298c-3.62573,-1.75439 -7.19298,-3.39181 -10.70175,-4.91228c-7.60234,-3.50877 -13.71345,-7.83626 -18.33333,-12.98246c-4.61988,-5.1462 -6.92982,-12.39766 -6.92982,-21.75439c0,-9.35673 3.74269,-17.16374 11.22807,-23.42105c7.48538,-6.25731 17.48538,-9.38596 30,-9.38596c12.51462,0 23.04094,1.9883 31.57895,5.96491v25.26316c-9.47368,-5.49708 -19.29825,-8.24561 -29.47368,-8.24561z" data-paper-data="{&quot;elementType&quot;:&quot;letter&quot;,&quot;baseline&quot;:67.8,&quot;baselineProportion&quot;:0.9883381924198251,&quot;fontSize&quot;:100}"></path><path d="M256.84211,167.2213h-44.91228v30.52632h39.12281v21.57895h-39.12281v44.5614h-27.19298v-118.24561h72.10526z" data-paper-data="{&quot;elementType&quot;:&quot;letter&quot;,&quot;baseline&quot;:67.4,&quot;baselineProportion&quot;:1,&quot;fontSize&quot;:100}"></path><path d="M270.87719,263.88797l10.17544,-118.24561h29.64912c14.15205,36.84211 22.1345,57.95322 23.94737,63.33333c1.81287,5.38012 3.30409,10.46784 4.47368,15.26316c1.87135,-7.7193 5.96491,-19.64912 12.2807,-35.78947l16.66667,-42.80702h29.64912l12.2807,118.24561h-27.01754l-4.38596,-45.78947l-2.2807,-34.5614c-2.45614,7.1345 -12.22222,33.50877 -29.29825,79.12281h-15.96491c-16.14035,-43.50877 -25.4386,-69.88304 -27.89474,-79.12281c0,8.30409 -0.52632,19.82456 -1.57895,34.5614l-3.68421,45.78947z" data-paper-data="{&quot;elementType&quot;:&quot;letter&quot;,&quot;baseline&quot;:67.4,&quot;baselineProportion&quot;:1,&quot;fontSize&quot;:100}"></path></g></g></g></svg>